<svg xmlns="http://www.w3.org/2000/svg" fill="#E54747" height="800px" width="800px" version="1.1" id="Capa_1" viewBox="0 0 224.726 224.726">
  <g data-name="Layer 2" id="Layer_2" transform="matrix(0.588441, 0, 0, 0.585629, -0.605441, -75.162666)" style="">
    <g data-name="E404, gear, Media, media player, multimedia" id="E404_gear_Media_media_player_multimedia">
      <path class="cls-1" d="M373.59,340.89V299.52a18.84,18.84,0,0,0-18.84-18.84H333.48A18.92,18.92,0,0,1,316,268.91l-.1-.24a19,19,0,0,1,4-20.71l15-15a18.83,18.83,0,0,0,0-26.64L305.72,177a18.83,18.83,0,0,0-26.64,0l-15,15a19,19,0,0,1-20.71,4l-.24-.1a18.92,18.92,0,0,1-11.77-17.46V157.25a18.84,18.84,0,0,0-18.84-18.84H171.11a18.84,18.84,0,0,0-18.84,18.84v21.27A18.92,18.92,0,0,1,140.5,196l-.24.1a19,19,0,0,1-20.71-4l-15-15a18.83,18.83,0,0,0-26.64,0L48.62,206.28a18.83,18.83,0,0,0,0,26.64l15,15a19,19,0,0,1,4,20.71l-.1.24a18.92,18.92,0,0,1-17.46,11.77H28.84A18.84,18.84,0,0,0,10,299.52v41.37a18.84,18.84,0,0,0,18.84,18.84H50.11A18.92,18.92,0,0,1,67.57,371.5l.1.24a19,19,0,0,1-4,20.71l-15,15a18.83,18.83,0,0,0,0,26.64l29.25,29.25a18.83,18.83,0,0,0,26.64,0l15-15a19,19,0,0,1,20.71-4l.24.1a18.92,18.92,0,0,1,11.77,17.46v21.27A18.84,18.84,0,0,0,171.11,502h41.37a18.84,18.84,0,0,0,18.84-18.84V461.89a18.92,18.92,0,0,1,11.77-17.46l.24-.1a19,19,0,0,1,20.71,4l15,15a18.83,18.83,0,0,0,26.64,0L335,434.13a18.83,18.83,0,0,0,0-26.64l-15-15a19,19,0,0,1-4-20.71l.1-.24a18.92,18.92,0,0,1,17.46-11.77h21.27A18.84,18.84,0,0,0,373.59,340.89Z" style="fill: none; stroke: #E54747; stroke-linecap: round; stroke-linejoin: round; stroke-width: 20px;"/>
      <circle class="cls-1" cx="191.8" cy="320.2" r="74.8" style="fill: none; stroke: #E54747; stroke-linecap: round; stroke-linejoin: round; stroke-width: 20px;"/>
    </g>
  </g>
</svg>